<?xml version="1.0" encoding="UTF-8" standalone="no"?>
<svg
   xmlns:dc="http://purl.org/dc/elements/1.1/"
   xmlns:cc="http://creativecommons.org/ns#"
   xmlns:rdf="http://www.w3.org/1999/02/22-rdf-syntax-ns#"
   xmlns:svg="http://www.w3.org/2000/svg"
   xmlns="http://www.w3.org/2000/svg"
   width="1126pt"
   height="888pt"
   viewBox="0 0 1126 888"
   version="1.1"
   id="svg2">
  <path
     transform="scale(0.75)"
     d="M 616.34375 1.5410156 C 592.70125 1.7260156 569.04367 4.8670311 547.01367 13.707031 C 532.17367 19.747031 519.22701 30.826901 512.01367 45.240234 C 507.14701 53.760234 506.35977 63.746979 505.75977 73.320312 C 507.62643 100.57365 510.0394 127.8275 510.05273 155.1875 C 500.2794 159.01417 490.29357 162.46753 481.24023 167.88086 C 466.1869 177.14753 451.28068 187.97339 442.02734 203.38672 C 434.42734 216.25339 429.50724 230.54674 426.25391 245.08008 C 424.33391 254.77341 422.73398 264.80096 424.33398 274.6543 C 426.68065 291.5343 433.89271 307.22638 441.35938 322.37305 C 348.02604 266.50638 254.85388 210.35912 161.56055 154.42578 C 157.00055 151.35911 152.67961 147.90729 147.59961 145.64062 C 136.89294 138.81396 126.46706 131.17385 114.40039 126.86719 C 102.05372 122.54719 89.107604 119.37245 75.960938 119.42578 C 68.934271 119.37245 62.039557 121.68021 56.212891 125.54688 C 41.186224 135.16021 26.586771 145.50583 12.773438 156.8125 C 6.6134374 161.66583 3.4926302 169.53357 3.2792969 177.24023 C 2.8392969 191.32023 2.6258073 205.43987 3.1191406 219.5332 C 3.1591406 225.78654 6.5072656 231.4937 10.947266 235.70703 C 23.307266 247.72036 38.385781 256.82734 54.425781 263.02734 C 68.905781 268.10734 83.360937 273.25333 97.960938 278 C 124.36094 286.62667 149.9874 297.45422 175.41406 308.57422 C 202.1474 320.54755 228.58648 333.41346 253.14648 349.4668 C 269.95982 360.53346 286.29362 372.31974 302.62695 384.06641 C 305.66695 386.15974 308.28044 388.74612 310.78711 391.43945 C 318.30711 387.34612 323.89349 380.50711 330.16016 374.78711 C 329.13349 371.28044 328.65385 367.65333 328.86719 364 C 329.20052 355.65333 328.18578 347.14633 330.42578 338.98633 C 312.69245 325.77299 294.1869 313.53409 275.24023 302.10742 C 246.6669 285.33409 216.10755 272.36003 185.57422 259.69336 C 157.26755 248.38669 128.2943 238.85245 99.654297 228.42578 C 85.520963 223.49245 71.865964 217.28068 58.279297 211.02734 C 49.41263 206.76068 40.226745 202.62602 33.080078 195.66602 C 35.440078 189.29268 40.280443 184.22706 45.787109 180.40039 C 56.773776 172.53372 67.707474 164.1057 80.494141 159.3457 C 86.880807 156.89237 93.479375 159.70622 99.359375 162.21289 C 108.34604 165.94622 117.38648 169.61318 126.14648 173.83984 C 256.49315 252.86651 386.87989 331.84086 517.22656 410.88086 C 504.54656 424.77419 491.18589 438.39953 475.19922 448.51953 C 455.09255 460.77286 434.56023 472.39992 415.24023 485.91992 C 378.40023 512.26659 349.12091 547.49294 322.26758 583.59961 C 314.50758 593.45294 310.26581 606.38719 313.11914 618.86719 C 313.59914 624.52052 317.76047 630.46591 314.48047 635.89258 C 311.3738 642.15924 308.29258 648.86607 308.89258 656.05273 C 309.38591 661.81273 310.5724 667.86695 314.03906 672.62695 C 317.6924 677.00029 323.98641 676.15964 329.06641 676.29297 C 325.19974 682.73297 321.22667 689.57297 321 697.29297 C 320.66667 703.9863 322.48062 711.7868 328.64062 715.4668 C 336.42729 720.28013 346.68034 719.18667 354.01367 714 C 353.73367 717.88 352.93346 721.98576 354.4668 725.73242 C 356.97346 731.85242 362.51997 737.09276 369.30664 737.74609 C 377.74664 738.33276 386.13378 735.18581 392.78711 730.11914 C 402.13378 723.19914 411.09404 715.78667 419.7207 708 C 422.05404 711.90667 425.2132 717.08065 430.5332 716.33398 C 438.62654 714.41398 445.90714 709.55979 451.48047 703.45312 C 467.14714 685.74646 479.39937 665.43945 493.35938 646.43945 C 480.42604 694.73279 458.61292 740.01333 441.90625 787 C 438.94625 795.13333 440.89315 804.45417 446.14648 811.1875 C 449.02648 814.77417 454.2532 815.89313 458.5332 814.45312 C 465.9732 812.69312 470.71911 806.22609 475.42578 800.74609 C 487.66578 786.35943 496.09406 769.30714 504.41406 752.48047 C 512.45406 736.22714 518.40029 719.06641 524.62695 702.06641 C 517.49362 726.47974 509.05365 750.53273 499.32031 774.05273 C 495.45365 784.09273 490.57372 793.85346 488.40039 804.4668 C 487.49372 808.57346 486.10758 813.12042 488.26758 817.09375 C 490.50758 822.14708 493.68094 828.31969 499.96094 828.67969 C 510.44094 829.59969 517.30737 820.40029 523.7207 813.62695 C 525.0007 816.22695 525.7994 819.26758 528.05273 821.26758 C 532.13273 824.40091 537.98661 825.10669 542.61328 822.69336 C 550.45328 818.68003 556.9063 812.42688 562.29297 805.54688 C 566.0263 808.06688 570.88013 812.03966 575.4668 808.98633 C 584.3068 803.37299 591.44078 795.41383 597.80078 787.17383 C 628.37411 745.29383 650.59919 697.4269 663.50586 647.24023 C 670.47919 619.04023 675.42625 590.40086 680.90625 561.88086 C 684.26625 546.70753 685.92013 531.08013 691.4668 516.4668 C 700.69346 521.9468 709.62763 528.09307 719.6543 532.06641 C 724.42763 534.02641 730.1726 531.61284 734.58594 534.82617 C 738.5326 537.25284 738.11956 542.41237 739.21289 546.3457 C 739.91956 551.03904 743.48094 555.06654 747.96094 556.5332 C 751.28094 556.2132 751.40044 552.19924 752.78711 549.89258 C 765.86711 548.73258 777.17333 559.62677 780 571.77344 C 780.70667 575.53344 783.90659 578.66607 787.91992 578.05273 C 789.10659 575.18607 790.30669 572.33422 791.69336 569.57422 C 802.96003 571.21422 810.04008 580.96057 815.08008 590.25391 C 818.48008 594.53391 821.41388 600.93398 827.56055 601.33398 C 828.93388 598.42732 830.12091 595.20044 833.26758 593.78711 C 845.09424 598.65378 848.88086 611.62706 856.88086 620.40039 C 858.28086 622.58706 859.85352 625.06617 862.85352 624.82617 C 863.96018 622.46617 865.00076 620.0807 866.10742 617.7207 C 868.94742 617.61404 872.06695 617.14643 874.62695 618.75977 C 881.98695 622.8131 886.52086 630.20076 890.88086 637.10742 C 893.18753 641.25409 896.37297 645.45286 901.29297 646.51953 C 902.29297 644.9862 903.29331 643.4676 904.30664 641.96094 C 913.43997 647.9876 921.46742 655.61318 931.10742 660.83984 C 1057.9874 737.98651 1184.84 815.17398 1311.6934 892.33398 C 1330.92 903.93398 1349.7994 916.29279 1370.3594 925.43945 C 1386.8794 931.98612 1404.4007 935.59984 1421.0273 941.83984 C 1427.1207 944.45318 1430.9472 950.52062 1432.8672 956.64062 C 1435.5339 964.06729 1432.7338 972.06617 1429.4805 978.82617 C 1409.8138 1009.8395 1384.1861 1036.4791 1357.7461 1061.7324 C 1340.8261 1077.5458 1321.2805 1090.1198 1303.4805 1104.8398 C 1299.9205 1108.2398 1295.0794 1111.8403 1295.3594 1117.3203 C 1294.826 1127.8803 1294.6794 1138.4661 1295.0527 1149.0527 C 1295.4794 1154.8394 1295.7742 1161.1594 1299.2676 1166.0527 C 1305.1876 1173.3061 1314.2668 1176.8401 1322.7734 1180.0801 C 1327.7868 1182.4934 1333.0797 1179.5602 1337.6797 1177.5469 C 1350.2664 1170.7069 1361.174 1161.2397 1372.0273 1151.9863 C 1396.9473 1131.0663 1417.426 1105.586 1437.2793 1079.9727 C 1452.0393 1060.906 1465.3871 1040.7343 1477.0938 1019.6543 C 1488.9738 998.02763 1495.9336 973.7875 1497.627 949.1875 C 1498.667 929.92083 1499.9071 910.55997 1498.0938 891.30664 C 1496.7337 883.47997 1487.9735 880.7731 1481.1602 879.75977 C 1464.9468 875.99977 1448.4003 879.89273 1432.0137 879.05273 C 1414.8137 877.90607 1397.4138 878.07979 1380.4805 874.45312 C 1355.6938 869.45312 1333.7591 856.26745 1312.1191 843.80078 C 1261.0258 814.86745 1210.8941 784.25391 1160.4141 754.25391 C 1082.5874 707.68057 1004.8267 660.97391 927.08008 614.25391 C 921.46674 610.98724 916.11948 607.18695 910.13281 604.62695 C 902.99948 599.61362 905.49417 589.25255 900.1875 583.19922 C 896.7075 584.86589 893.25339 586.84031 889.38672 587.32031 C 881.77339 587.57365 874.38659 584.21273 868.91992 579.05273 C 864.06659 574.25273 865.70635 566.75974 862.67969 561.06641 C 861.11969 559.62641 859.07945 560.40049 857.43945 561.17383 C 848.07945 565.14716 836.76091 562.39974 829.26758 556.06641 C 827.34758 549.35974 827.30672 541.69281 822.38672 536.13281 C 817.77339 537.65281 812.97333 540.09404 808 538.7207 C 801.69333 537.58737 795.93245 534.31951 791.42578 529.82617 C 790.25245 523.58617 789.23924 516.78688 783.89258 512.54688 C 778.14591 512.98688 772.87917 518.13273 766.8125 516.05273 C 760.8925 514.1594 753.74633 512.8938 749.98633 507.48047 C 749.86633 500.32047 746.82674 493.76081 742.08008 488.49414 C 737.69341 487.82747 733.62638 489.72091 729.37305 490.26758 C 721.11971 489.68091 713.22688 486.48096 706.54688 481.6543 C 728.60021 485.5343 750.96039 488.3326 773.40039 487.58594 C 803.38706 486.99927 832.93328 480.63956 861.61328 472.21289 C 887.91995 464.31956 913.56081 451.45383 932.49414 431.17383 C 945.44081 417.53383 953.04023 399.62724 956.24023 381.25391 C 959.84023 352.38724 951.52055 323.56021 939.56055 297.54688 C 929.84055 278.13354 917.79979 259.65289 902.45312 244.21289 C 887.97312 229.38622 870.65378 217.82633 853.78711 205.98633 C 853.10711 204.30633 853.94622 202.52018 854.21289 200.85352 C 857.73289 186.81352 862.06583 173.00034 865.8125 159.01367 C 870.79917 146.84034 869.63964 132.97253 866.29297 120.50586 C 861.4663 102.78586 849.90667 87.694011 836 76.027344 C 816.64 59.147344 793.98583 46.519688 770.8125 35.679688 C 742.67917 22.853021 713.14747 12.573854 682.49414 7.8671875 C 668.33414 5.7338541 654.17326 3.5869011 639.91992 2.2402344 C 632.10326 1.746901 624.22458 1.479349 616.34375 1.5410156 z M 616.69922 7.6621094 C 634.36396 7.582474 652.02263 9.3483854 669.4668 12.199219 C 694.52013 15.305885 719.13268 21.520286 742.66602 30.626953 C 769.47935 40.920287 795.57427 53.586041 818.96094 70.359375 C 830.24094 78.906042 841.53328 87.933698 849.61328 99.707031 C 858.86661 112.9337 863.90719 129.25245 862.86719 145.42578 C 862.65385 151.55911 859.60026 157.01305 856.93359 162.37305 C 849.29359 173.63971 839.22742 183.39943 827.10742 189.74609 C 810.02742 198.67943 790.81318 202.46703 771.83984 204.70703 C 736.73318 208.52036 701.05318 205.53266 666.83984 196.97266 C 635.45318 189.14599 604.29339 178.21292 577.38672 159.90625 C 564.54672 151.22625 552.35982 141.56052 541.14648 130.86719 C 534.37315 124.70719 527.49427 118.35964 522.96094 110.29297 C 517.12094 100.27964 514.50742 88.773047 513.10742 77.373047 C 512.33409 70.079713 512.27911 62.560469 514.42578 55.480469 C 519.90578 38.787135 533.58677 25.653906 549.77344 19.253906 C 563.50677 13.933906 578.01362 10.666328 592.62695 8.9863281 C 600.63945 8.1154948 608.66979 7.6983073 616.69922 7.6621094 z M 514.82617 108.58594 C 518.19951 114.54594 521.70628 120.53406 526.59961 125.41406 C 552.75961 152.04073 583.45388 174.94596 618.56055 188.2793 C 675.06721 210.1193 737.82755 219.66576 797.57422 206.73242 C 818.94755 202.15909 839.9732 192.65292 854.5332 175.90625 C 850.8532 189.37292 846.9863 202.81286 844.29297 216.51953 C 839.97297 238.09286 837.81372 260.05294 833.40039 281.59961 C 827.16039 299.25294 813.2263 312.91995 798.29297 323.61328 C 775.7863 338.75995 749.46667 347.19922 723 352.19922 C 689.48 358.05255 654.77409 354.97393 622.10742 345.94727 C 602.76075 340.74727 585.63971 329.9326 569.37305 318.58594 C 558.09305 310.4926 548.25422 300.63943 538.57422 290.74609 C 529.73422 281.78609 522.28076 271.26664 518.10742 259.30664 C 515.85409 252.26664 511.96073 245.18594 513.41406 237.58594 C 515.48073 207.3326 516.48057 176.99935 516.25391 146.66602 C 515.74724 133.98602 515.15951 121.2926 514.82617 108.58594 z M 77.828125 125.63281 C 78.639401 125.62214 79.448906 125.62729 80.253906 125.64062 C 73.720573 127.04063 67.0275 128.2807 61.1875 131.7207 C 49.840833 138.29404 39.719115 146.7201 29.425781 154.77344 C 22.465781 160.17344 17.147344 168.32065 17.027344 177.33398 C 17.400677 186.32065 23.119818 193.94716 29.146484 200.17383 C 35.386484 206.90716 43.839245 210.80018 51.892578 214.85352 C 96.065912 236.66685 144.06604 248.87932 189.35938 267.97266 C 219.74604 280.69266 250.09323 293.87982 278.22656 311.14648 C 292.6399 320.19982 306.98661 329.45268 320.61328 339.66602 C 317.63995 341.57268 314.66737 343.49245 311.7207 345.42578 C 289.2407 328.94578 266.86711 311.9732 241.78711 299.5332 C 208.01378 282.6132 172.81401 268.60021 137.02734 256.54688 C 108.70734 246.62687 79.853334 237.86758 53 224.26758 C 39.826666 217.40091 24.519688 211.54607 16.679688 198.05273 C 12.146354 190.13273 8.1073177 180.82654 10.333984 171.5332 C 11.773984 165.38654 16.879948 161.29328 21.613281 157.61328 C 34.453281 147.66661 47.666536 138.13396 61.533203 129.64062 C 66.386537 126.49062 72.149193 125.70755 77.828125 125.63281 z M 86.378906 131.90234 C 89.299115 131.94734 92.213073 132.25617 95.066406 132.82617 C 112.55974 135.90617 128.70687 143.65305 144.54688 151.37305 C 275.57354 230.27971 406.88018 308.77344 537.85352 387.77344 C 531.01352 392.53344 525.87922 399.16094 521.19922 405.96094 C 392.89255 328.3476 264.71979 250.53318 136.45312 172.83984 C 124.99979 165.14651 111.74716 160.90578 99.173828 155.42578 C 92.187161 152.17245 83.879948 151.04076 76.613281 154.10742 C 63.159948 159.69409 51.465833 168.57315 39.8125 177.14648 C 34.999167 180.46648 31.732969 185.37266 28.292969 189.97266 C 25.826302 185.70599 22.839036 181.20034 23.345703 176.01367 C 23.945703 169.45367 28.066484 163.77411 33.146484 159.80078 C 42.306484 152.46745 51.494062 145.08044 61.414062 138.78711 C 68.804063 134.01711 77.618281 131.76734 86.378906 131.90234 z M 509.94727 161.96094 C 510.13393 190.68094 508.34695 219.36 506.62695 248 C 506.06695 256.86667 507.28029 265.77365 509.62695 274.32031 C 512.42695 285.41365 516.93409 296.21255 524.10742 305.19922 C 533.44076 317.09255 544.32055 327.6931 555.56055 337.75977 C 579.97388 357.26643 607.22672 373.90576 637.38672 382.73242 C 661.04005 389.07909 685.80083 391.30599 710.1875 388.97266 C 742.7475 386.85266 774.86711 377.1605 802.78711 360.17383 C 812.56044 354.61383 820.2394 346.27938 828.05273 338.35938 C 832.65273 320.34604 835.4543 301.87977 839.6543 283.75977 C 842.1343 278.34643 841.28039 272.37268 842.40039 266.66602 C 845.49372 248.49268 847.50695 230.11948 851.62695 212.13281 C 873.34695 226.83948 895.06682 242.44013 911.16016 263.4668 C 923.76016 280.3068 934.78646 298.58695 941.45312 318.62695 C 948.70646 338.64029 953.02685 360.30755 949.85352 381.57422 C 947.90685 391.61422 944.69419 401.50721 939.88086 410.56055 C 930.61419 426.97388 915.94677 439.74615 899.77344 449.13281 C 875.86677 463.46615 848.40073 470.05385 821.41406 475.86719 C 777.36073 485.14719 731.19932 482.57253 687.97266 470.50586 C 686.67932 469.81253 685.41383 469.08065 684.17383 468.33398 C 685.52049 465.50732 687.02687 462.77273 688.54688 460.05273 C 685.65354 451.4394 683.21305 442.08063 676.37305 435.64062 C 666.47971 426.05396 653.58669 420.26763 643.69336 410.6543 C 640.17336 412.18763 637.87958 415.42609 634.90625 417.74609 C 625.74625 410.78609 615.26581 405.86607 604.11914 403.05273 C 607.25247 400.1594 610.68089 397.54706 613.57422 394.40039 C 615.12089 391.92039 612.62721 390.0669 610.56055 389.24023 C 601.33388 385.01357 591.57365 381.31992 581.32031 380.91992 C 569.20031 380.47992 556.84083 381.04003 545.1875 384.69336 C 515.77417 367.32003 486.62758 349.50573 457.26758 332.03906 C 453.74758 330.30573 451.80003 326.81336 449.69336 323.69336 C 445.44003 317.36003 442.37237 310.36039 439.3457 303.40039 C 434.9457 292.93372 431.14581 282.02763 430.11914 270.6543 C 429.29247 258.2543 432.02654 245.92042 435.5332 234.09375 C 440.31987 218.77375 447.02685 203.4275 458.85352 192.1875 C 473.45352 178.5875 490.94727 168.1476 509.94727 161.96094 z M 8.9609375 197.29297 C 12.720938 203.63964 16.813932 210.05339 22.947266 214.38672 C 34.987266 223.05339 48.679401 229.03904 62.052734 235.3457 C 77.519401 242.7857 93.867344 248.13284 110.02734 253.82617 C 136.90734 263.19951 164.0793 271.83906 190.2793 283.03906 C 214.82596 293.23906 239.33393 303.90701 261.94727 318.01367 C 277.97393 328.12034 293.2263 339.38685 308.29297 350.85352 C 308.27964 360.60018 308.30615 370.36076 308.13281 380.10742 C 282.49281 362.42742 257.66656 343.3738 230.22656 328.48047 C 195.5999 309.76047 159.35935 294.24008 122.66602 280.08008 C 106.58602 274.01341 90.093594 269.10758 73.933594 263.26758 C 64.60026 259.92091 54.986146 257.18602 46.132812 252.66602 C 34.692812 246.85268 23.706016 239.84096 14.666016 230.6543 C 11.786016 227.8143 9.6390365 224.12068 9.3457031 220.02734 C 8.5990364 212.48068 8.8942708 204.8663 8.9609375 197.29297 z M 514.56055 267.89258 C 524.22721 287.43925 540.6007 302.39961 556.7207 316.59961 C 569.9207 327.37294 584.44096 336.5475 599.6543 344.1875 C 626.02763 356.09417 655.24094 360.31937 683.96094 361.35938 C 717.2276 361.98604 750.53276 354.54602 780.74609 340.66602 C 799.54609 332.02602 816.62656 319.25276 829.22656 302.74609 C 827.21323 313.33276 825.24063 323.94706 822.64062 334.40039 C 816.24062 341.82706 809.20044 348.97247 800.78711 354.11914 C 779.93378 367.01247 756.60047 375.74701 732.48047 380.01367 C 707.56047 384.18701 681.88026 385.14635 656.93359 380.67969 C 627.20026 375.89302 599.60057 362.0807 575.25391 344.7207 C 559.14724 334.1207 545.25302 320.50599 532.67969 305.97266 C 523.07969 295.34599 517.18721 281.87924 514.56055 267.89258 z M 322.88086 345.66602 C 322.89419 354.01268 323.05336 362.38576 322.69336 370.73242 C 322.68003 375.69242 317.2657 377.84008 314.3457 381.08008 C 314.21237 371.42674 314.15919 361.74742 314.50586 352.10742 C 316.05253 348.89409 320.13419 347.74602 322.88086 345.66602 z M 572.11328 387.08789 C 575.22516 387.05289 578.33406 387.10922 581.41406 387.19922 C 589.72073 387.37255 597.56016 390.52089 605.16016 393.57422 C 584.05349 412.30755 564.08021 432.38654 546.54688 454.5332 C 541.54687 461.5332 536.50643 469.68003 537.75977 478.69336 C 537.79977 482.82669 541.08031 486.77299 545.32031 486.98633 C 554.96031 486.83966 563.6668 482.04044 571.4668 476.78711 C 590.80013 464.04044 610.42727 451.33393 626.94727 434.94727 C 632.49393 429.74727 637.70701 424.2131 643.01367 418.75977 C 650.56034 423.9331 657.8132 429.53312 665.5332 434.45312 C 673.86654 439.94646 679.45289 448.93336 681.21289 458.69336 C 681.13289 460.44003 680.23961 462.01328 679.59961 463.61328 C 673.39961 477.05328 667.39945 490.58648 661.43945 504.14648 C 655.54612 517.82648 649.29318 531.4794 645.83984 546.05273 C 642.75984 558.9594 638.38763 571.75935 630.6543 582.66602 C 615.50763 604.51935 598.46607 624.99974 581.05273 645.06641 C 567.02607 661.26641 551.08068 675.70763 534.02734 688.6543 C 526.58734 694.3743 518.68091 700.14727 509.26758 701.94727 C 505.20091 703.09393 501.57398 698.46602 502.33398 694.66602 C 503.52065 685.95935 506.32039 677.34742 511.40039 670.10742 C 524.38706 650.34742 538.37362 631.26669 551.62695 611.69336 C 553.89362 608.16003 556.72049 604.89326 558.17383 600.91992 C 558.84049 595.83992 554.99911 590.95922 550.42578 589.19922 C 547.13245 587.94589 544.45352 591.01354 541.85352 592.54688 C 518.73352 609.69354 496.04026 627.46659 473.93359 645.91992 C 446.78693 668.45326 425.46578 697.21242 397.42578 718.73242 C 389.98578 724.66576 382.02727 731.56055 371.94727 731.56055 C 364.17393 732.32055 357.57349 723.41315 360.16016 716.14648 C 362.66682 703.35982 371.61318 693.41385 379.83984 683.86719 C 390.87984 670.94719 402.74687 658.74721 415.54688 647.56055 C 432.29354 633.26721 448.25281 618.09352 464.13281 602.85352 C 465.73281 601.14685 468.69383 598.80021 466.17383 596.54688 C 462.57383 594.64021 460.10576 598.34706 457.73242 600.40039 C 442.05242 615.41372 426.25344 630.28073 409.77344 644.41406 C 393.18677 658.9474 378.25396 675.30661 364.64062 692.61328 C 360.05396 699.79995 354.23984 706.4525 346.83984 710.8125 C 339.94651 714.79917 328.13253 711.62729 327.50586 702.64062 C 325.86586 694.25396 330.09297 686.47927 334.29297 679.58594 C 345.9463 659.4926 359.9207 640.75909 375.7207 623.73242 C 394.45404 603.23909 415.87935 585.4657 437.66602 568.3457 C 439.67935 567.21237 440.27911 565.10633 439.42578 562.98633 C 437.83911 561.31966 435.66648 561.93331 434.14648 563.30664 C 396.61315 592.06664 361.20052 624.83982 335.86719 665.14648 C 333.24052 671.15982 325.46742 670.20029 320.10742 669.62695 C 316.48076 666.65362 315.85391 661.50648 315.25391 657.14648 C 314.20057 649.53315 317.99937 642.55906 321.35938 636.03906 C 332.29271 615.82573 345.45388 596.69323 361.56055 580.22656 C 376.06721 565.38656 391.19927 551.13255 406.58594 537.19922 C 408.10594 536.03922 407.52096 534.00005 407.6543 532.38672 C 405.80096 531.90672 403.73331 530.98617 402.30664 532.82617 C 392.55997 541.30617 383.13393 550.17424 373.94727 559.26758 C 360.6406 572.21424 347.20073 585.21372 336.41406 600.40039 C 330.76073 608.04039 325.85268 616.18682 320.66602 624.16016 C 319.38602 618.41349 317.78602 612.48055 318.66602 606.56055 C 319.73268 597.42721 325.2543 589.77268 330.6543 582.66602 C 356.12096 549.06602 383.63948 516.20047 418.13281 491.48047 C 437.41281 477.90714 457.96008 466.2924 478.08008 454.03906 C 490.16008 446.50573 500.86576 436.95909 510.73242 426.73242 C 515.94576 421.25242 521.63966 416.17393 525.98633 409.94727 C 531.09299 402.8406 536.19969 394.89286 544.67969 391.51953 C 553.40969 388.12953 562.77766 387.19289 572.11328 387.08789 z M 599.17773 408.43945 C 599.36878 408.4518 599.56677 408.49589 599.77344 408.57422 C 611.0001 410.78755 621.69276 415.4538 630.74609 422.48047 C 611.81276 442.82714 588.58732 458.38732 565.33398 473.33398 C 559.26732 477.49398 552.32026 480.4276 544.93359 480.96094 C 541.22693 472.85427 547.17354 464.70622 551.54688 458.21289 C 565.17354 441.30622 579.89419 425.21414 595.88086 410.49414 C 596.86086 409.73581 597.84044 408.35305 599.17773 408.43945 z M 681.38672 474.02734 C 690.86672 479.29401 699.99904 485.16096 709.3457 490.6543 C 714.2657 493.56096 719.89279 494.93281 725.43945 496.13281 C 730.27945 497.47948 735.02659 494.83987 739.91992 495.5332 C 747.02659 506.06654 742.07938 519.16031 739.35938 530.32031 C 734.49271 526.65365 728.46711 527.06578 722.78711 526.42578 C 712.25378 522.81245 703.21362 516.03953 693.62695 510.51953 C 695.62695 504.85286 697.90721 499.28086 700.56055 493.88086 C 702.17388 491.33419 699.66625 489.02646 697.90625 487.45312 C 693.09292 482.54646 686.25307 480.76091 680.06641 478.26758 C 680.50641 476.85424 680.93339 475.44068 681.38672 474.02734 z M 677.26758 483.97266 C 683.13424 485.99932 689.30701 487.85315 694.01367 492.14648 C 689.37367 504.65315 683.85393 516.92 680.94727 530 C 673.7206 564.16 668.20021 598.66609 660.54688 632.74609 C 648.72021 686.27943 626.01427 737.42693 593.96094 781.93359 C 587.7476 790.34693 580.45378 798.16042 571.78711 804.09375 C 569.74711 802.96042 567.78753 801.69237 565.88086 800.3457 C 573.44086 789.01237 580.78612 777.45401 586.43945 765.02734 C 597.19945 741.81401 607.14724 718.25276 617.25391 694.74609 C 618.22724 692.85276 618.22648 690.72096 618.14648 688.6543 C 616.63982 688.46763 615.14763 688.32083 613.6543 688.1875 C 603.8943 708.9875 595.52086 730.43997 585.88086 751.30664 C 577.72086 770.49331 567.25354 788.69323 554.54688 805.22656 C 549.77354 810.46656 544.23997 815.85318 537.30664 817.83984 C 530.53331 819.06651 529.97302 811.16055 528.67969 806.56055 C 543.18635 782.44055 552.90594 755.93333 563.58594 730 C 568.27927 718.37333 572.94661 706.74742 577.61328 695.10742 C 578.35995 693.38742 578.3057 691.49302 578.3457 689.67969 C 577.37237 689.34635 575.41279 688.67904 574.43945 688.3457 C 571.30612 692.67904 569.90685 697.89276 567.85352 702.74609 C 557.77352 727.63943 548.00049 752.6669 537.17383 777.24023 C 530.94716 789.68023 525.01318 802.5875 515.83984 813.1875 C 512.09318 816.97417 508.18721 821.70604 502.56055 822.35938 C 497.09388 823.47938 494.94654 817.06573 493.5332 813.03906 C 493.8132 804.34573 497.10698 796.08076 500.32031 788.10742 C 512.70698 758.62742 523.59961 728.51984 532.59961 697.83984 C 545.81294 687.18651 559.37398 676.79935 571.33398 664.66602 C 584.60065 651.18602 596.64062 636.57266 608.64062 621.97266 C 618.58729 609.61266 628.49391 597.15992 637.25391 583.91992 C 643.72057 574.19992 647.9337 563.17419 650.70703 551.88086 C 656.30703 528.09419 667.53424 506.22599 677.26758 483.97266 z M 749.21289 516.13281 C 754.89289 518.74615 760.77393 521.1857 766.94727 522.3457 C 772.29393 523.33237 777.33346 520.96026 782.4668 519.93359 C 788.21346 531.58693 781.37276 543.60034 778.74609 555.01367 C 772.81276 549.32034 765.71997 544.4543 757.30664 543.6543 C 753.07997 542.46763 749.46742 545.2657 746.10742 547.3457 C 742.09409 536.87904 747.38622 526.42615 749.21289 516.13281 z M 790.50586 537.4668 C 798.82586 544.01346 809.81383 546.74648 820.17383 544.14648 C 821.26716 547.98648 821.74729 551.98667 821.64062 556 C 820.20062 563.65333 816.83964 570.77406 815.29297 578.41406 C 809.99964 571.72073 803.29328 565.50625 794.61328 563.90625 C 790.99995 562.63958 787.86633 565.13292 784.98633 566.90625 C 783.27966 556.61292 787.51919 547.0268 790.50586 537.4668 z M 826.4668 562.69336 C 831.16013 564.46669 835.13263 568.04047 840.2793 568.48047 C 846.4793 569.56047 852.75932 568.7193 858.97266 568.2793 C 859.99932 574.46596 857.13279 580.15992 855.43945 585.91992 C 853.78612 591.07992 852.58633 596.3731 851.98633 601.75977 C 847.58633 596.70643 843.03943 591.35935 836.74609 588.66602 C 832.07943 586.99935 827.59992 589.65424 823.91992 592.26758 C 817.59992 582.94758 823.89346 572.14669 826.4668 562.69336 z M 863.03906 582.51953 C 872.02573 590.8262 885.02615 596.21299 897.13281 591.98633 C 900.05281 603.47966 890.98628 613.0394 889.59961 624.05273 C 885.31961 618.6394 880.01424 613.58755 873.26758 611.57422 C 869.01424 610.46755 864.72052 611.75987 860.86719 613.5332 C 855.72052 603.50654 859.83906 592.4262 863.03906 582.51953 z M 549.37305 595.06641 C 550.63971 596.97307 553.01292 599.29388 550.90625 601.56055 C 536.47958 623.45388 520.78706 644.48039 506.40039 666.40039 C 500.65372 674.72039 497.12057 684.57362 496.25391 694.62695 C 495.33391 701.06695 500.34737 707.45237 506.7207 708.3457 C 509.90737 708.33237 512.98581 707.38591 516.11914 706.89258 C 507.66581 732.03925 496.67922 756.34622 483.19922 779.21289 C 477.75922 788.14622 471.42641 796.61341 464.06641 804.08008 C 461.13307 807.21341 456.57255 809.84031 452.19922 808.32031 C 449.18589 805.81365 447.76068 801.91922 447.02734 798.19922 C 445.93401 790.49255 449.86638 783.39971 452.37305 776.37305 C 468.23971 734.67971 486.50711 693.77412 498.78711 650.80078 C 500.60044 644.41411 503.37242 637.86615 501.73242 631.13281 C 517.55909 619.05281 532.87971 606.25307 549.37305 595.06641 z M 902.35938 606.24023 C 905.70604 610.20023 910.74641 611.70758 915.06641 614.26758 C 1002.2397 666.68091 1089.4528 719.04057 1176.7461 771.25391 C 1228.6661 802.20057 1280.3876 833.53318 1333.2676 862.83984 C 1343.7609 868.73318 1355.0003 873.12076 1365.9336 878.10742 C 1380.1203 884.66742 1395.8403 886.30622 1411.0137 889.21289 C 1427.7203 892.91956 1445.5334 890.63966 1461.6934 896.98633 C 1465.52 898.34633 1465.2392 903.02698 1464.8125 906.32031 C 1463.7858 912.13365 1461.1331 917.48094 1459.0664 922.96094 C 1454.1064 936.12094 1447.6007 948.6407 1440.4141 960.7207 C 1438.3474 950.50737 1433.0004 939.85284 1422.7871 935.82617 C 1407.7338 930.42617 1392.1591 926.57406 1377.0391 921.41406 C 1356.0791 912.97406 1337.1739 900.38617 1317.8672 888.82617 C 1189.6539 810.8395 1061.4396 732.82685 933.21289 654.85352 C 923.62622 649.49352 915.75964 641.60042 906.29297 636.09375 C 903.51964 634.26708 900.50576 636.66622 897.73242 637.21289 C 896.22576 632.98622 895.13247 628.45299 896.11914 623.98633 C 896.93247 617.67966 900.37271 612.1869 902.35938 606.24023 z M 488.16016 642.49414 C 475.16016 661.45414 462.59943 680.81406 447.74609 698.41406 C 442.95943 704.1874 436.29357 708.12081 429.24023 710.49414 C 426.21357 708.18747 424.7457 703.95977 427.3457 700.75977 C 446.73237 680.46643 465.64016 659.41414 488.16016 642.49414 z M 1465.3184 884.33789 C 1473.0165 884.40102 1480.7227 885.39734 1487.9727 888.02734 C 1492.386 889.54734 1492.8935 894.72003 1492.1602 898.69336 C 1489.4935 917.33336 1482.9199 935.24042 1474.6133 952.09375 C 1461.2666 979.41375 1446.2125 1006.0795 1427.5059 1030.1328 C 1413.1725 1048.9461 1396.1342 1065.4265 1379.1875 1081.8398 C 1361.1742 1098.7198 1341.8277 1114.0932 1322.3477 1129.2266 C 1314.8143 1125.9732 1307.3862 1121.9474 1301.8262 1115.8008 C 1307.5328 1108.3474 1315.5739 1103.2669 1322.8672 1097.5469 C 1337.2405 1086.6935 1351.9458 1076.1471 1364.8125 1063.4805 C 1381.2658 1047.4671 1397.5997 1031.226 1412.0664 1013.3594 C 1427.9597 993.97271 1441.4669 972.73328 1453.2402 950.61328 C 1458.9602 940.22661 1463.3727 929.2275 1467.666 918.1875 C 1470.1193 911.4675 1473.186 903.74677 1469.9727 896.77344 C 1468.0393 892.22677 1462.9599 890.57365 1458.6133 889.32031 C 1451.0933 887.48031 1443.413 886.09419 1435.6797 885.88086 C 1442.9197 884.65419 1450.3206 885.06721 1457.6406 884.56055 C 1460.1873 884.40055 1462.7523 884.31685 1465.3184 884.33789 z M 1492.4141 925.13281 C 1492.4674 938.31948 1491.3863 951.49388 1489.5996 964.56055 C 1486.5063 983.50721 1479.9726 1001.8803 1470.5859 1018.627 C 1460.1059 1037.0536 1448.5874 1054.9061 1435.7207 1071.7461 C 1420.2674 1092.0928 1404.2137 1112.0537 1386.4004 1130.4004 C 1374.8137 1141.5204 1362.7991 1152.2267 1350.0391 1162 C 1343.1324 1167.04 1336.1734 1172.5596 1327.6934 1174.5996 C 1324.24 1167.5996 1324.8535 1159.587 1324.8535 1152.0137 C 1324.8135 1146.027 1325.5734 1140.0932 1326.0801 1134.1465 C 1343.5867 1120.6132 1360.9073 1106.8267 1377.334 1092 C 1396.3207 1074.08 1415.2943 1055.96 1431.3477 1035.3066 C 1448.1743 1013.96 1462.0268 990.45398 1474.4668 966.33398 C 1481.2535 952.97398 1487.8274 939.43948 1492.4141 925.13281 z M 1301.1738 1124.2793 C 1307.0005 1128.2793 1313.0265 1132.0409 1319.5332 1134.8809 C 1318.7999 1147.3475 1317.826 1159.8409 1319.666 1172.2676 C 1313.026 1169.0142 1304.1737 1165.9875 1302.4004 1157.8809 C 1300.2271 1146.8142 1300.8405 1135.466 1301.1738 1124.2793 z "
     style="stroke-width:1.33333"
     id="path6" />
</svg>
